<svg width="24" height="25" viewBox="0 0 24 25" fill="none" xmlns="http://www.w3.org/2000/svg">
<g clip-path="url(#clip0_6_104)">
<path d="M8 4.68749C8 4.54936 7.94732 4.41688 7.85355 4.31921C7.75979 4.22153 7.63261 4.16666 7.5 4.16666C7.36739 4.16666 7.24021 4.22153 7.14645 4.31921C7.05268 4.41688 7 4.54936 7 4.68749V5.20832H6C5.46957 5.20832 4.96086 5.42782 4.58579 5.81852C4.21071 6.20922 4 6.73912 4 7.29166V8.33332H20V7.29166C20 6.73912 19.7893 6.20922 19.4142 5.81852C19.0391 5.42782 18.5304 5.20832 18 5.20832H17V4.68749C17 4.54936 16.9473 4.41688 16.8536 4.31921C16.7598 4.22153 16.6326 4.16666 16.5 4.16666C16.3674 4.16666 16.2402 4.22153 16.1464 4.31921C16.0527 4.41688 16 4.54936 16 4.68749V5.20832H8V4.68749ZM20 18.75V9.37499H4V18.75C4 19.3025 4.21071 19.8324 4.58579 20.2231C4.96086 20.6138 5.46957 20.8333 6 20.8333H18C18.5304 20.8333 19.0391 20.6138 19.4142 20.2231C19.7893 19.8324 20 19.3025 20 18.75ZM13.5 11.4583H14.5C14.6326 11.4583 14.7598 11.5132 14.8536 11.6109C14.9473 11.7085 15 11.841 15 11.9792V13.0208C15 13.159 14.9473 13.2914 14.8536 13.3891C14.7598 13.4868 14.6326 13.5417 14.5 13.5417H13.5C13.3674 13.5417 13.2402 13.4868 13.1464 13.3891C13.0527 13.2914 13 13.159 13 13.0208V11.9792C13 11.841 13.0527 11.7085 13.1464 11.6109C13.2402 11.5132 13.3674 11.4583 13.5 11.4583ZM16.5 11.4583H17.5C17.6326 11.4583 17.7598 11.5132 17.8536 11.6109C17.9473 11.7085 18 11.841 18 11.9792V13.0208C18 13.159 17.9473 13.2914 17.8536 13.3891C17.7598 13.4868 17.6326 13.5417 17.5 13.5417H16.5C16.3674 13.5417 16.2402 13.4868 16.1464 13.3891C16.0527 13.2914 16 13.159 16 13.0208V11.9792C16 11.841 16.0527 11.7085 16.1464 11.6109C16.2402 11.5132 16.3674 11.4583 16.5 11.4583ZM6 15.1042C6 14.966 6.05268 14.8335 6.14645 14.7359C6.24021 14.6382 6.36739 14.5833 6.5 14.5833H7.5C7.63261 14.5833 7.75979 14.6382 7.85355 14.7359C7.94732 14.8335 8 14.966 8 15.1042V16.1458C8 16.284 7.94732 16.4164 7.85355 16.5141C7.75979 16.6118 7.63261 16.6667 7.5 16.6667H6.5C6.36739 16.6667 6.24021 16.6118 6.14645 16.5141C6.05268 16.4164 6 16.284 6 16.1458V15.1042ZM9.5 14.5833H10.5C10.6326 14.5833 10.7598 14.6382 10.8536 14.7359C10.9473 14.8335 11 14.966 11 15.1042V16.1458C11 16.284 10.9473 16.4164 10.8536 16.5141C10.7598 16.6118 10.6326 16.6667 10.5 16.6667H9.5C9.36739 16.6667 9.24021 16.6118 9.14645 16.5141C9.05268 16.4164 9 16.284 9 16.1458V15.1042C9 14.966 9.05268 14.8335 9.14645 14.7359C9.24021 14.6382 9.36739 14.5833 9.5 14.5833V14.5833Z" fill="white"/>
</g>
<defs>
<clipPath id="clip0_6_104">
<rect width="16" height="16.6667" fill="white" transform="translate(4 4.16666)"/>
</clipPath>
</defs>
</svg>
