<svg width="80" height="80" viewBox="0 0 80 80" fill="none" xmlns="http://www.w3.org/2000/svg">
<path d="M54.8888 57.0701L54.9043 57.07C56.0821 57.0765 57.2525 56.959 58.4224 56.7254L58.4228 56.7253C61.5278 56.0912 64.0083 54.4536 65.7299 52.9494C67.4459 51.4501 68.4127 50.0792 68.4981 49.9533C69.0495 49.1876 68.2372 48.1787 67.368 48.5597C67.3651 48.5608 67.3603 48.5628 67.3535 48.5655C67.1325 48.6552 64.8717 49.572 61.9056 50.3043C58.81 51.0685 54.9635 51.627 51.8697 50.8473L51.8696 50.8474C51.7329 50.8095 49.5381 50.1691 46.0165 46.6061C45.6545 46.1594 42.9321 42.9862 36.5978 39.8233L36.5977 39.8233C28.9273 36.0016 27.7053 32.7112 27.6877 32.6638C27.6877 32.6638 27.6877 32.6637 27.6877 32.6637C27.6877 32.6637 27.6877 32.6637 27.6877 32.6637C27.5315 32.1417 26.9627 31.8748 26.4602 32.0694C26.3935 32.0946 25.6772 32.3838 24.8483 32.967C24.018 33.5511 23.0667 34.4357 22.5483 35.6529L22.5483 35.6529L22.548 35.6536C22.0071 36.9527 22.037 38.4143 22.6138 39.6975C23.1108 40.9096 24.1124 41.9311 25.3302 42.7819C26.5494 43.6336 27.9929 44.3197 29.385 44.858C32.1538 45.9286 34.7325 46.4197 34.9697 46.4649L34.9735 46.4656L34.9735 46.4657L34.9773 46.4663C35.0277 46.4739 35.0856 46.4821 35.1446 46.4821C35.1444 46.4821 35.1447 46.4821 35.1455 46.4822C35.1995 46.4853 37.6222 46.6249 41.0727 50.8045L41.0727 50.8045L41.0742 50.8062C44.5422 54.8166 49.5877 57.1069 54.8888 57.0701ZM51.4322 52.6654C55.7126 53.7403 61.038 52.5812 64.49 51.5403C62.6595 53.1824 60.4433 54.3406 58.0402 54.8933C52.2889 56.05 46.3645 54.0398 42.5034 49.6143C38.7496 45.0666 35.9076 44.6571 35.2366 44.6239C33.9045 44.3731 31.4998 43.7587 29.2651 42.8068C28.146 42.3301 27.0727 41.7701 26.1989 41.1309C25.3239 40.4908 24.6569 39.7771 24.3382 38.9955L24.3383 38.9955L24.3363 38.9912C23.9561 38.1726 23.9206 37.235 24.2568 36.3964C24.7272 35.4629 25.4789 34.6901 26.3948 34.1889C27.2756 35.6263 29.6573 38.4619 35.7684 41.5025C38.9018 43.0632 41.1028 44.6343 42.5222 45.8176C43.232 46.4092 43.7463 46.9039 44.0841 47.252C44.253 47.426 44.3778 47.5633 44.4608 47.6577C44.5023 47.7049 44.5333 47.7414 44.5541 47.7664C44.5726 47.7884 44.5823 47.8005 44.5845 47.8032C44.5848 47.8037 44.585 47.8039 44.585 47.8039C44.611 47.8384 44.6369 47.8643 44.6582 47.8857L44.6589 47.8864C44.659 47.8865 44.6591 47.8866 44.6592 47.8867C48.696 51.9895 51.2801 52.6344 51.4322 52.6654Z" fill="#155E75" stroke="#155E75" stroke-width="0.2"/>
<path d="M27.5634 33.2633C27.1349 34.2892 25.6027 33.6415 26.0313 32.6227M27.5634 33.2633L69.0405 47.3364C68.9244 46.3471 68.2711 45.5101 67.3487 45.1608C66.049 44.6807 64.7128 44.2802 63.3625 43.9675M27.5634 33.2633C30.0763 27.224 33.242 24.4078 37.1923 24.6768M27.5634 33.2633L37.1923 24.6768M26.0313 32.6227C28.965 25.6007 32.9877 22.384 38.0123 23.0972C38.3679 23.1479 38.6516 23.4245 38.7169 23.7738C39.2325 26.6991 40.3797 28.7 42.1445 29.7264M26.0313 32.6227L25.939 32.5842C25.939 32.5841 25.9391 32.5841 25.9391 32.5841M26.0313 32.6227L25.9391 32.5839C25.9391 32.584 25.9391 32.584 25.9391 32.5841M42.1445 29.7264C44.4102 31.0436 47.2056 30.4832 49.1516 29.7848C49.5219 29.6538 49.9357 29.7995 50.1393 30.134L57.3425 42.0899M42.1445 29.7264L42.1948 29.6399M42.1445 29.7264L42.1948 29.64C42.1948 29.6399 42.1948 29.6399 42.1948 29.6399M57.3425 42.0899C59.3032 42.8538 61.3146 43.4797 63.3625 43.9675M57.3425 42.0899L57.3788 41.9967C57.3894 42.0009 57.4 42.005 57.4106 42.0091M57.3425 42.0899L57.4282 42.0383L57.4106 42.0091M63.3625 43.9675L63.3856 43.8702M63.3625 43.9675L63.385 43.8701C63.3852 43.8701 63.3854 43.8702 63.3856 43.8702M63.3856 43.8702C64.7399 44.1838 66.08 44.5855 67.3834 45.067L67.3841 45.0673C68.3416 45.4298 69.0194 46.2986 69.1398 47.3247L69.1398 47.3251C69.2444 48.2439 69.0129 49.1698 68.5065 49.9385L68.5056 49.9399C68.3282 50.1999 68.0361 50.3546 67.7266 50.3546H67.7135L67.7131 50.3545C66.9796 50.3446 66.5498 49.527 66.9455 48.9127L66.9467 48.9108C67.2229 48.5021 67.3412 48.0029 67.2859 47.5096C67.2399 47.1891 67.0244 46.9153 66.7195 46.8052L66.7189 46.8049C65.4813 46.348 64.2217 45.9706 62.9332 45.6736L62.9326 45.6734C60.7206 45.1485 58.5522 44.4628 56.4347 43.6247M63.3856 43.8702L56.4713 43.5316M63.3856 43.8702C61.3532 43.3861 59.3569 42.7657 57.4106 42.0091M63.3856 43.8702L37.1923 24.6768M56.4347 43.6247C56.4346 43.6246 56.4346 43.6246 56.4345 43.6246L56.4713 43.5316M56.4347 43.6247C56.4348 43.6247 56.4348 43.6247 56.4348 43.6247L56.4713 43.5316M56.4347 43.6247C56.2466 43.551 56.0851 43.4125 55.9795 43.2422L55.9789 43.2411L49.0123 31.6869M56.4713 43.5316C56.3041 43.4661 56.1593 43.3423 56.0645 43.1895L49.0574 31.568M49.0123 31.6869C49.0373 31.6791 49.0624 31.6713 49.0874 31.6634L49.0574 31.568M49.0123 31.6869L48.9718 31.6197L49.0574 31.568M49.0123 31.6869C46.0186 32.6129 43.3501 32.47 41.2519 31.2469M49.0574 31.568C46.0512 32.5142 43.3865 32.3756 41.3021 31.1604M41.3021 31.1604L41.2519 31.2469M41.3021 31.1604C39.2325 29.96 37.8527 27.7768 37.1923 24.6768M41.3021 31.1604L41.2518 31.2468C41.2518 31.2468 41.2519 31.2469 41.2519 31.2469M41.2519 31.2469C39.1672 30.0377 37.7809 27.8508 37.1105 24.7719M37.1923 24.6768L37.1855 24.7766C37.1605 24.7749 37.1355 24.7733 37.1105 24.7719M37.1923 24.6768L37.0945 24.6977C37.0998 24.7225 37.1051 24.7472 37.1105 24.7719M37.1105 24.7719C33.2624 24.5479 30.1482 27.3115 27.6558 33.3017L27.6557 33.3019C27.5382 33.5833 27.3411 33.7565 27.1154 33.8339C26.8921 33.9104 26.6484 33.8907 26.4372 33.8019C26.2261 33.7132 26.0414 33.5528 25.9395 33.3401C25.8365 33.1252 25.8214 32.8638 25.9391 32.5841M25.9391 32.5841C27.4095 29.0646 29.1569 26.4881 31.1754 24.881C33.1971 23.2714 35.4864 22.6377 38.0264 22.9981L38.0265 22.9982C38.425 23.0551 38.7421 23.3646 38.8152 23.7554L38.8154 23.7564C39.3283 26.6665 40.4655 28.6342 42.1948 29.6399M42.1948 29.6399C44.4197 30.9335 47.177 30.3872 49.1179 29.6906L49.1183 29.6905C49.5327 29.5439 49.9963 29.7067 50.2248 30.082L50.225 30.0824L57.4106 42.0091" fill="#155E75" stroke="#155E75" stroke-width="0.2"/>
<path d="M32.2327 39.3509H32.4122L32.4026 39.3354C32.5655 39.3053 32.7165 39.2322 32.8482 39.1241L32.8482 39.1241L32.85 39.1225C34.8486 37.3986 35.8834 35.438 35.9127 33.2997L35.9127 33.2996C35.9348 31.5566 35.2826 29.9531 34.4332 28.6107C33.5836 27.268 32.5329 26.1806 31.7485 25.4674C31.5234 25.2619 31.2717 25.1878 31.0344 25.2125C30.7996 25.237 30.5867 25.3573 30.4325 25.5269C30.2783 25.6964 30.1785 25.9198 30.1759 26.1563C30.1733 26.3951 30.2702 26.6393 30.4952 26.8449C31.0366 27.3405 31.9362 28.2386 32.6953 29.3701C33.4547 30.502 34.067 31.858 34.0499 33.2726C33.9345 35.0395 33.0495 36.6562 31.6356 37.7078L31.6354 37.7076L31.6303 37.712C30.9717 38.2748 31.3696 39.3509 32.2327 39.3509Z" fill="#155E75" stroke="#155E75" stroke-width="0.2"/>
<path d="M46.7655 44.2127C47.7662 46.387 49.0654 47.8503 50.6267 48.555L51.0094 48.6367C52.0197 48.6441 52.3071 47.2703 51.4033 46.853C50.0466 46.1005 49.0037 44.8899 48.4604 43.4363L48.4601 43.4357C47.7881 41.6758 47.3473 39.8283 47.1375 37.9518L47.1375 37.9518L47.1373 37.95C47.0554 37.3166 46.8325 36.7068 46.4988 36.1639L46.4988 36.1639C46.1654 35.6221 45.7276 35.1457 45.1998 34.7809C44.1535 34.0523 42.8553 33.7847 41.6092 34.037C40.8604 34.1743 40.1043 34.2393 39.3397 34.2463L39.3381 34.2463C37.9582 34.2823 36.5997 33.867 35.47 33.0643L35.4697 33.0641C35.2207 32.8886 34.962 32.8466 34.7301 32.9011C34.5005 32.9549 34.305 33.1012 34.1738 33.2888C34.0426 33.4764 33.9722 33.7107 33.9996 33.9455C34.0274 34.1826 34.1542 34.4127 34.4031 34.5884C35.8584 35.6193 37.6073 36.1496 39.3855 36.1057C40.2635 36.1056 41.1332 36.0176 41.9873 35.864L41.9873 35.864L41.99 35.8635C43.1323 35.625 44.3024 36.1304 44.9121 37.1347C45.1085 37.4587 45.2415 37.8162 45.2903 38.1936C45.5166 40.2542 46.012 42.2781 46.7632 44.2072L46.763 44.2072L46.7655 44.2127Z" fill="#155E75" stroke="#155E75" stroke-width="0.2"/>
<path d="M49.1038 49.0226L49.1132 49.0229L49.116 49.0225C51.394 48.9829 53.4653 47.6819 54.4901 45.6436C54.9995 44.6724 55.8907 43.9567 56.9506 43.6797C57.2404 43.6212 57.4455 43.4668 57.5667 43.2666C57.6872 43.0676 57.7214 42.8295 57.6828 42.6072C57.6442 42.3849 57.5319 42.1723 57.3516 42.0257C57.1695 41.8778 56.9236 41.8018 56.6301 41.8457L56.6301 41.8454L56.6221 41.8473C55.0118 42.2248 53.6371 43.2756 52.8611 44.742C52.3413 45.6757 51.5576 46.5705 50.3826 46.9554C49.2089 47.3398 47.6226 47.2224 45.4815 46.0849C45.0254 45.8247 44.4482 45.9966 44.2046 46.4605C43.9609 46.9244 44.1475 47.493 44.6084 47.7298C45.9801 48.523 47.5197 48.9636 49.1038 49.0226Z" fill="#155E75" stroke="#155E75" stroke-width="0.2"/>
<path d="M49.8327 35.1602H49.9519L49.9504 35.1518C50.0578 35.1367 50.1615 35.102 50.2553 35.0544L50.2553 35.0544L50.2562 35.0539L52.9136 33.6713C52.9136 33.6713 52.9137 33.6713 52.9137 33.6712C53.1847 33.5315 53.3413 33.3211 53.4001 33.0899C53.4583 32.861 53.4188 32.6194 53.3133 32.4158C53.2077 32.2123 53.033 32.0409 52.8128 31.9562C52.5903 31.8707 52.3286 31.8766 52.0593 32.0166L52.0593 32.0167L49.4016 33.3994L49.4016 33.3994C48.54 33.848 48.8563 35.1602 49.8327 35.1602Z" fill="#155E75" stroke="#155E75" stroke-width="0.2"/>
<path d="M51.8327 38.1537H51.9507L51.9495 38.1465C52.0557 38.1332 52.1607 38.1012 52.2577 38.0467L54.9139 36.6647L54.9139 36.6647L54.9152 36.664C55.1787 36.522 55.3305 36.3119 55.387 36.0825C55.443 35.8554 55.404 35.6165 55.2999 35.4149C55.1958 35.2133 55.0237 35.0433 54.8064 34.9581C54.5868 34.8721 54.3281 34.8754 54.0606 35.0095L54.0606 35.0095L54.0593 35.0102L51.4016 36.3929L51.4016 36.393C50.54 36.8415 50.8563 38.1537 51.8327 38.1537Z" fill="#155E75" stroke="#155E75" stroke-width="0.2"/>
<path d="M53.8327 41.1602H53.9519L53.9504 41.1518C54.0578 41.1367 54.1615 41.102 54.2553 41.0543L54.2553 41.0544L54.2562 41.0539L56.9136 39.6713C56.9136 39.6713 56.9137 39.6713 56.9138 39.6712C57.1847 39.5315 57.3413 39.3211 57.4001 39.0899C57.4583 38.861 57.4188 38.6194 57.3133 38.4158C57.2077 38.2123 57.033 38.0409 56.8128 37.9562C56.5903 37.8707 56.3286 37.8766 56.0593 38.0166L56.0593 38.0167L53.4016 39.3994L53.4016 39.3994L53.401 39.3997C52.5415 39.8551 52.855 41.1602 53.8327 41.1602Z" fill="#155E75" stroke="#155E75" stroke-width="0.2"/>
<path d="M28.0019 51H10.9981C9.66729 51 9.66729 49 10.9981 49H28.0019C29.3327 49 29.3327 51 28.0019 51Z" fill="#155E75"/>
<path d="M35.0019 57H17.9981C16.6673 57 16.6673 55 17.9981 55H35.0019C36.3327 55 36.3327 57 35.0019 57Z" fill="#155E75"/>
</svg>
