<svg width="24" height="25" viewBox="0 0 24 25" fill="none" xmlns="http://www.w3.org/2000/svg">
<path d="M16.375 11.1979C17.0654 11.1979 17.625 10.615 17.625 9.89583C17.625 9.17671 17.0654 8.59375 16.375 8.59375C15.6846 8.59375 15.125 9.17671 15.125 9.89583C15.125 10.615 15.6846 11.1979 16.375 11.1979Z" fill="white"/>
<path d="M19.5 5.33853H12.15C11.6917 4.73823 11.1118 4.25078 10.4516 3.91101C9.79153 3.57124 9.06752 3.38753 8.33134 3.373C7.59517 3.35848 6.865 3.5135 6.193 3.827C5.52101 4.14049 4.92378 4.60471 4.44398 5.1865C3.96418 5.76829 3.61365 6.45328 3.41745 7.19254C3.22124 7.93179 3.1842 8.70706 3.30897 9.46296C3.43374 10.2189 3.71724 10.9367 4.13921 11.5653C4.56118 12.1938 5.11121 12.7175 5.75 13.0989V19.6614C5.75 20.0068 5.8817 20.338 6.11612 20.5822C6.35054 20.8263 6.66848 20.9635 7 20.9635H19.5C19.8315 20.9635 20.1495 20.8263 20.3839 20.5822C20.6183 20.338 20.75 20.0068 20.75 19.6614V6.64061C20.75 6.29528 20.6183 5.96409 20.3839 5.7199C20.1495 5.47571 19.8315 5.33853 19.5 5.33853V5.33853ZM4.5 8.59374C4.50146 7.73511 4.77446 6.90091 5.27678 6.22015C5.77911 5.53938 6.48276 5.04998 7.27893 4.82764C8.07509 4.6053 8.9194 4.6624 9.68128 4.99012C10.4432 5.31783 11.0802 5.8979 11.4938 6.64061H7V7.9427H11.9438C11.9782 8.15792 11.9971 8.37556 12 8.59374C11.9971 8.81192 11.9782 9.02955 11.9438 9.24478H8.25V10.5469H11.4938C11.0802 11.2896 10.4432 11.8696 9.68128 12.1974C8.9194 12.5251 8.07509 12.5822 7.27893 12.3598C6.48276 12.1375 5.77911 11.6481 5.27678 10.9673C4.77446 10.2866 4.50146 9.45236 4.5 8.59374V8.59374ZM19.5 19.6614H7L10.125 16.4062L11.1188 17.4414C11.353 17.6839 11.6698 17.82 12 17.82C12.3302 17.82 12.647 17.6839 12.8813 17.4414L16.375 13.8021L19.5 17.0573V19.6614ZM19.5 15.2148L17.2563 12.8776C17.022 12.6351 16.7052 12.499 16.375 12.499C16.0448 12.499 15.728 12.6351 15.4938 12.8776L12 16.5169L11.0063 15.4818C10.772 15.2392 10.4552 15.1031 10.125 15.1031C9.79477 15.1031 9.47795 15.2392 9.24375 15.4818L7 17.819V13.6328C7.40844 13.7423 7.82825 13.7992 8.25 13.8021C9.57608 13.8021 10.8479 13.2533 11.7855 12.2766C12.7232 11.2998 13.25 9.97507 13.25 8.59374C13.2504 7.92389 13.1251 7.26043 12.8813 6.64061H19.5V15.2148Z" fill="white"/>
</svg>
