<svg width="24" height="25" viewBox="0 0 24 25" fill="none" xmlns="http://www.w3.org/2000/svg">
<path d="M15.25 6.77084C15.8467 6.77084 16.419 6.52391 16.841 6.08437C17.263 5.64484 17.5 5.04869 17.5 4.42709C17.5 3.80549 17.263 3.20935 16.841 2.76981C16.419 2.33027 15.8467 2.08334 15.25 2.08334C14.6533 2.08334 14.081 2.33027 13.659 2.76981C13.2371 3.20935 13 3.80549 13 4.42709C13 5.04869 13.2371 5.64484 13.659 6.08437C14.081 6.52391 14.6533 6.77084 15.25 6.77084V6.77084ZM10.73 9.00105C10.1065 9.16251 9.68101 9.40522 9.33751 9.70626C8.82251 10.1583 8.40651 10.8104 7.84451 11.8354C7.7129 12.0753 7.4952 12.2509 7.2393 12.3235C6.98341 12.3962 6.71028 12.36 6.48001 12.2229C6.24974 12.0858 6.08118 11.8591 6.01141 11.5925C5.94165 11.3259 5.9764 11.0414 6.10801 10.8016C6.66751 9.7823 7.23301 8.82866 8.04951 8.11303C8.90151 7.36511 9.94451 6.9422 11.351 6.77918C11.939 6.71147 12.586 6.72501 13.1925 7.00678C13.829 7.30314 14.294 7.83386 14.611 8.54324C15.038 9.49793 15.3555 10.0662 15.6095 10.3953C15.732 10.5537 15.8175 10.6271 15.866 10.6599C15.9045 10.6859 15.921 10.688 15.927 10.6891H15.9275C15.971 10.6943 16.112 10.6891 16.526 10.4979C16.7065 10.4146 16.9035 10.3146 17.1445 10.1922L17.202 10.163C17.4967 10.0115 17.7941 9.86567 18.094 9.72553C18.3361 9.61482 18.6105 9.60849 18.857 9.70793C19.1036 9.80737 19.3023 10.0045 19.4097 10.2562C19.5172 10.5078 19.5245 10.7936 19.4302 11.0509C19.3359 11.3082 19.1476 11.5161 18.9065 11.6292C18.6286 11.7591 18.3531 11.8944 18.08 12.0349L18.0145 12.0682C17.784 12.1854 17.552 12.3037 17.3345 12.4037C16.8845 12.6109 16.3095 12.8359 15.686 12.7573C15.028 12.674 14.521 12.287 14.1035 11.7677L12.737 14.5141L14.627 17.0755C14.7395 17.2287 14.809 17.4109 14.8285 17.6026L15.2445 21.7672C15.2604 21.9044 15.2498 22.0435 15.2136 22.1765C15.1773 22.3094 15.116 22.4335 15.0332 22.5415C14.9504 22.6495 14.8479 22.7393 14.7315 22.8056C14.6151 22.8719 14.4871 22.9134 14.3552 22.9277C14.2232 22.942 14.0899 22.9288 13.9628 22.8889C13.8358 22.849 13.7177 22.7831 13.6153 22.6952C13.513 22.6073 13.4285 22.499 13.3667 22.3767C13.3049 22.2544 13.2671 22.1205 13.2555 21.9828L12.8685 18.1115L11.7205 16.5552L11.7105 16.5745L11.6685 16.4849L9.54751 13.6099C9.44325 13.4686 9.37553 13.3018 9.35084 13.1254C9.32616 12.9491 9.34532 12.7691 9.40651 12.6026L10.73 9.00105V9.00105Z" fill="white"/>
<path d="M9.21601 15.1078L8.48001 17.1703L5.58001 16.9307C5.44817 16.918 5.3152 16.9326 5.18883 16.9738C5.06246 17.015 4.9452 17.082 4.84386 17.1708C4.74253 17.2595 4.65913 17.3684 4.5985 17.491C4.53788 17.6137 4.50124 17.7476 4.49071 17.8851C4.48019 18.0226 4.49598 18.1609 4.53717 18.292C4.57837 18.4231 4.64415 18.5444 4.7307 18.6488C4.81724 18.7532 4.92283 18.8386 5.04133 18.9002C5.15983 18.9617 5.28889 18.9981 5.42101 19.0073L9.07501 19.3094C9.29187 19.3274 9.50844 19.2712 9.69188 19.1494C9.87532 19.0276 10.0156 18.8468 10.0915 18.6344L10.654 17.0573L9.21601 15.1078Z" fill="white"/>
</svg>
