<svg width="24" height="25" viewBox="0 0 24 25" fill="none" xmlns="http://www.w3.org/2000/svg">
<path d="M14.1875 15.9939C14.3403 16.1531 14.5278 16.2327 14.75 16.2327C14.9722 16.2327 15.1667 16.1458 15.3333 15.9722C15.4861 15.8131 15.5625 15.6105 15.5625 15.3646C15.5625 15.1186 15.4861 14.9161 15.3333 14.757L12.8333 12.1528V9.00609C12.8333 8.76014 12.7536 8.55759 12.5942 8.39845C12.4342 8.23931 12.2361 8.15974 12 8.15974C11.7639 8.15974 11.5661 8.24278 11.4067 8.40887C11.2467 8.57553 11.1667 8.78184 11.1667 9.02779V12.4783C11.1667 12.5941 11.1875 12.706 11.2292 12.8142C11.2708 12.923 11.3333 13.0208 11.4167 13.1077L14.1875 15.9939ZM12 21.1806C10.8472 21.1806 9.76388 20.9526 8.74999 20.4965C7.7361 20.0411 6.85416 19.4228 6.10416 18.6415C5.35416 17.8603 4.76055 16.9416 4.32332 15.8854C3.88555 14.8293 3.66666 13.7008 3.66666 12.5C3.66666 11.2992 3.88555 10.1707 4.32332 9.1146C4.76055 8.05846 5.35416 7.13977 6.10416 6.35852C6.85416 5.57727 7.7361 4.95864 8.74999 4.50262C9.76388 4.04718 10.8472 3.81946 12 3.81946C13.1528 3.81946 14.2361 4.04718 15.25 4.50262C16.2639 4.95864 17.1458 5.57727 17.8958 6.35852C18.6458 7.13977 19.2394 8.05846 19.6767 9.1146C20.1144 10.1707 20.3333 11.2992 20.3333 12.5C20.3333 13.7008 20.1144 14.8293 19.6767 15.8854C19.2394 16.9416 18.6458 17.8603 17.8958 18.6415C17.1458 19.4228 16.2639 20.0411 15.25 20.4965C14.2361 20.9526 13.1528 21.1806 12 21.1806ZM12 19.4445C13.8472 19.4445 15.4203 18.7682 16.7192 17.4158C18.0175 16.0628 18.6667 14.4242 18.6667 12.5C18.6667 10.5758 18.0175 8.93722 16.7192 7.58421C15.4203 6.23178 13.8472 5.55557 12 5.55557C10.1528 5.55557 8.57999 6.23178 7.28166 7.58421C5.98277 8.93722 5.33332 10.5758 5.33332 12.5C5.33332 14.4242 5.98277 16.0628 7.28166 17.4158C8.57999 18.7682 10.1528 19.4445 12 19.4445Z" fill="white"/>
</svg>
