<svg width="80" height="80" viewBox="0 0 80 80" fill="none" xmlns="http://www.w3.org/2000/svg">
<path d="M38 52C37.4478 52 37 52.4478 37 53V57C37 57.5523 37.4478 58.0001 38 58.0001C38.5522 58.0001 39 57.5523 39 57V53C39 52.4478 38.5522 52 38 52Z" fill="#5B21B6"/>
<path d="M49.9986 39.1649L49.9799 34.5304C49.9576 33.6045 49.5812 32.7219 48.9276 32.0652C48.2741 31.4085 47.3937 31.0277 46.4678 31.0009C46.4616 31.0005 46.4071 31.0001 46.4013 31.0001C45.4897 30.9951 44.6151 31.3594 43.9763 32.0094C43.9589 32.0277 43.9455 32.0487 43.9285 32.067C43.2785 31.4041 42.3955 31.0215 41.4678 31.0009C41.4615 31.0005 41.4071 31.0001 41.4013 31.0001C40.4897 30.9951 39.6151 31.3594 38.9762 32.0099C38.9588 32.0277 38.9459 32.0492 38.9285 32.067C38.2784 31.4041 37.3954 31.0215 36.4677 31.0009C36.4615 31.0005 36.4075 31 36.4012 31C35.4896 30.9951 34.615 31.3594 33.9762 32.0099C33.9588 32.0277 33.9458 32.0487 33.9288 32.067C33.2788 31.4045 32.3958 31.0219 31.4677 31.0009C31.4614 31.0005 31.4074 31 31.4012 31C30.4882 30.9974 29.6128 31.3626 28.9726 32.0135C28.3328 32.6643 27.9824 33.546 28.0007 34.4586L28.0248 39.4671H28.0243C28.044 40.3944 28.4199 41.2783 29.0735 41.9359C29.7275 42.5935 30.6093 42.9743 31.5365 42.9994C31.5423 42.9998 33.136 43.094 34.0245 41.9877C34.041 41.9676 34.058 41.9489 34.0758 41.9297V41.9301C34.7249 42.5944 35.608 42.9784 36.5365 42.9994C37.2147 43.0127 37.8817 42.8226 38.4508 42.4538C38.6531 42.5462 38.8633 42.619 39.079 42.6712L42.2139 43.7244L41.6536 45.4649C39.9032 45.7457 38.2875 46.5761 37.0402 47.8359C36.8612 48.0315 36.767 48.2904 36.7786 48.5551C36.7906 48.8203 36.9071 49.0699 37.1027 49.2489C37.5103 49.6217 38.1429 49.5935 38.5156 49.186C39.9929 47.5712 42.4599 47.3686 42.4821 47.3667H42.4817C42.8897 47.3386 43.2397 47.065 43.3652 46.6757L44.4206 43.397V43.3974C44.588 42.876 44.3054 42.3171 43.7866 42.1429C43.7866 42.1429 39.6112 40.742 39.5754 40.7335C39.2191 40.6581 38.9084 40.442 38.7147 40.134C38.5205 39.8259 38.4598 39.4523 38.5459 39.0987C38.7732 38.3206 39.5674 37.8545 40.3576 38.0353L47.7795 39.8447C47.9697 39.9085 48.1393 40.0219 48.2706 40.1737C48.5487 40.6143 48.5933 41.1634 48.3902 41.6438L46.5969 47.0157L46.5965 47.0153C46.5559 47.1407 46.5389 47.2724 46.5478 47.4041C46.5501 47.4389 46.7603 50.9104 44.3888 52.7475V52.747C43.7357 53.2796 43.4009 54.1086 43.5004 54.9448V62.0001C43.5004 62.5524 43.9482 63.0001 44.5005 63.0001C45.0527 63.0001 45.5005 62.5524 45.5005 62.0001C45.5005 62.0001 45.4951 54.7478 45.4839 54.6881C45.4728 54.5555 45.5197 54.4242 45.613 54.3291C48.479 52.109 48.5769 48.4125 48.5523 47.4738L50.3006 42.2358V42.2353C50.6434 41.2666 50.5653 40.1978 50.0845 39.2893C50.0581 39.2438 50.0269 39.2076 49.9988 39.1648L49.9986 39.1649ZM31.5722 40.9997C30.7253 40.9761 30.0454 40.2939 30.0248 39.447C30.0248 39.447 30.0007 34.4411 30.0007 34.4376C29.994 34.0555 30.1422 33.6872 30.4119 33.4166C30.6811 33.1456 31.0489 32.9956 31.4311 33.0005C32.2771 33.026 32.9566 33.7064 32.9803 34.5528L33.0003 39.5617C33.0789 41.0002 31.5722 40.9997 31.5722 40.9997L31.5722 40.9997ZM36.6137 38.5845C36.3976 39.3858 36.4945 40.239 36.8847 40.9712C36.7811 40.9859 36.6766 40.9957 36.5722 40.9997C35.7253 40.9761 35.0454 40.2939 35.0248 39.447C35.0248 39.447 35.0007 34.4407 35.0007 34.4376C34.9945 34.0559 35.1427 33.6876 35.4123 33.4171C35.6816 33.1461 36.049 32.9961 36.4311 33.0005C37.2771 33.026 37.9566 33.7064 37.9803 34.5528L37.9888 36.6479V36.6474C37.3151 37.1095 36.8276 37.7961 36.6138 38.5845L36.6137 38.5845ZM40.8173 36.0889V36.0894C40.5517 36.0296 40.2802 36.0014 40.0079 36.0046L40.0008 34.4376C39.9945 34.0559 40.1432 33.688 40.4124 33.417C40.6816 33.1465 41.0485 32.996 41.4307 33.0005C42.2767 33.0255 42.9562 33.7063 42.9803 34.5528L42.9888 36.6188L40.8173 36.0889ZM45.0142 37.1122L45.0008 34.4381C44.9955 34.0564 45.1437 33.6885 45.4129 33.418C45.6821 33.1474 46.0491 32.997 46.4308 33.0006C47.2767 33.0256 47.9563 33.7064 47.9804 34.5528L47.9938 37.839L45.0142 37.1122Z" fill="#5B21B6"/>
<path d="M70.0001 37.0002H68.0001V35.0001C67.9992 34.2046 67.6827 33.4421 67.1206 32.8796C66.5581 32.3175 65.7955 32.001 65 32.0001H63V30.0001C62.9991 29.2045 62.6826 28.442 62.1205 27.8795C61.558 27.3174 60.7955 27.0009 59.9999 27H56.9999C56.4476 27 55.9999 27.4478 55.9999 28V37.0001H52.4806L52.4891 39.0001H55.9999V41.0001H52.4976L52.4994 41.5332C52.5065 42.0283 52.4445 42.522 52.3154 43.0002H55.9998V52.0003C55.9998 52.5525 56.4476 53.0003 56.9998 53.0003H59.9998C60.7954 52.9994 61.5579 52.6829 62.1204 52.1208C62.6825 51.5583 62.999 50.7958 62.9999 50.0002V48.0002H64.9999C65.7955 47.9993 66.558 47.6828 67.1205 47.1207C67.6826 46.5582 67.9991 45.7957 68 45.0001V43.0001H70C70.5304 42.9997 71.0389 42.7885 71.4134 42.4135C71.7884 42.0389 71.9996 41.5304 72 41.0001V39.0001C71.9996 38.4697 71.7884 37.9612 71.4134 37.5867C71.0389 37.2117 70.5304 37.0005 70 37.0001L70.0001 37.0002ZM61 50.0003C60.9995 50.5525 60.5522 50.9999 60 51.0003H58V29.0001H60C60.5522 29.0005 60.9995 29.4479 61 30.0001V50.0003ZM66 45.0002C65.9996 45.5525 65.5523 45.9998 65 46.0003H63V34.0001H65C65.5523 34.0006 65.9996 34.4479 66 35.0001V45.0002ZM68.0001 41.0002V39.0002H70.0001L70.0014 41.0002H68.0001Z" fill="#5B21B6"/>
<path d="M26.5221 41.0002H24.0002V39.0002H26.5127L26.5033 37.0002H24.0002V28.0001C24.0002 27.4478 23.5524 27.0001 23.0002 27.0001H20.0002C19.2046 27.001 18.4421 27.3175 17.8796 27.8795C17.3175 28.442 17.001 29.2046 17.0001 30.0001V32.0001H15.0001C14.2045 32.001 13.442 32.3176 12.8795 32.8796C12.3174 33.4421 12.0009 34.2047 12 35.0002V37.0002H10C9.46964 37.0007 8.9616 37.2118 8.58661 37.5868C8.21162 37.9618 8.00045 38.4699 8 39.0002V41.0002C8.00045 41.5306 8.21161 42.0386 8.58661 42.4136C8.96161 42.7886 9.46966 42.9998 10 43.0002H12V45.0003C12.0009 45.7958 12.3174 46.5583 12.8795 47.1209C13.442 47.6829 14.2045 47.9994 15.0001 48.0003H17.0001V50.0003C17.001 50.7959 17.3175 51.5584 17.8796 52.1209C18.4421 52.683 19.2046 52.9995 20.0002 53.0004H23.0002C23.5524 53.0004 24.0002 52.5526 24.0002 52.0004V43.0003H26.7627C26.6136 42.5128 26.5337 42.007 26.5248 41.4972L26.5221 41.0002ZM11.9996 41.0002H9.99961V39.0002H11.9996V41.0002ZM16.9997 46.0002H14.9997C14.4474 45.9998 14.0001 45.5525 13.9997 45.0002V35.0001C14.0001 34.4479 14.4474 34.0006 14.9997 34.0001H16.9997V46.0002ZM21.9997 51.0003H19.9997C19.4475 50.9999 19.0001 50.5525 18.9997 50.0003V30.0001C19.0001 29.4479 19.4475 29.0005 19.9997 29.0001H21.9997V51.0003Z" fill="#5B21B6"/>
<path d="M30.0057 47.7157C30.0098 47.6791 30.012 47.6416 30.012 47.6045L30.0066 45.0933V45.0938C29.2714 44.8701 28.59 44.4978 28.0048 44L28.0119 47.5563C27.9307 48.8183 28.2664 50.0724 28.9677 51.1246C29.5017 51.9273 29.8508 52.8385 29.9901 53.7921V60.3332C29.9901 60.8854 30.4378 61.3332 30.9901 61.3332C31.5423 61.3332 31.9901 60.8854 31.9901 60.3332V53.7921C31.9901 52.2832 30.8892 50.4282 30.6682 50.0715C30.1888 49.3831 29.9557 48.5532 30.0057 47.7157V47.7157Z" fill="#5B21B6"/>
</svg>
