<svg width="32" height="32" viewBox="0 0 32 32" fill="none" xmlns="http://www.w3.org/2000/svg">
<path d="M9 1V4M24 1V4" stroke="white" stroke-width="4" stroke-linejoin="round"/>
<path fill-rule="evenodd" clip-rule="evenodd" d="M1 8C1 5.79086 2.79086 4 5 4H27C29.2091 4 31 5.79086 31 8V9H1V8ZM1 11V27C1 29.2091 2.79086 31 5 31H27C29.2091 31 31 29.2091 31 27V11H1ZM9.5 14C10.3285 14 11 14.6268 11 15.4V19.6H21V15.4C21 14.6268 21.6716 14 22.5 14C23.3284 14 24 14.6268 24 15.4V26.6C24 27.3732 23.3284 28 22.5 28C21.6716 28 21 27.3732 21 26.6V22.4H11V26.6C11 27.3732 10.3285 28 9.5 28C8.67158 28 8 27.3732 8 26.6V15.4C8 14.6268 8.67158 14 9.5 14ZM7 18.2C7 17.4268 6.32842 16.8 5.5 16.8C4.67158 16.8 4 17.4268 4 18.2V23.8C4 24.5732 4.67158 25.2 5.5 25.2C6.32842 25.2 7 24.5732 7 23.8V18.2ZM26.5 16.8C27.3284 16.8 28 17.4268 28 18.2V23.8C28 24.5732 27.3284 25.2 26.5 25.2C25.6716 25.2 25 24.5732 25 23.8V18.2C25 17.4268 25.6716 16.8 26.5 16.8Z" fill="white"/>
</svg>
